<svg xmlns="http://www.w3.org/2000/svg" width="25" height="21" viewBox="0 0 25 21" fill="none">
  <g clip-path="url(#clip0_225_32398)">
    <path d="M21.5218 16.4804C11.4019 20.3334 5.12131 17.1097 1.10092 15.1517C0.852145 15.0283 0.429305 15.1806 0.796176 15.5177C2.13557 16.8169 6.52504 19.9484 12.2546 19.9484C17.988 19.9484 21.3989 17.4457 21.8256 17.0091C22.2494 16.5762 21.9501 16.3374 21.5217 16.4804H21.5218ZM24.364 15.2247C24.0922 14.9416 22.7115 14.8888 21.8425 14.9742C20.9722 15.0572 19.6659 15.4827 19.7795 15.7382C19.8378 15.8339 19.9567 15.7909 20.5546 15.7479C21.1541 15.7001 22.8335 15.5305 23.1835 15.8965C23.5351 16.265 22.6478 18.0204 22.4858 18.3035C22.3292 18.5867 22.5456 18.6597 22.8397 18.4711C23.1297 18.2826 23.6548 17.7945 24.0071 17.1037C24.3571 16.4092 24.5705 15.4403 24.3639 15.2247H24.364Z" fill="#FF9900"/>
    <path fill-rule="evenodd" clip-rule="evenodd" d="M14.7173 8.61848C14.7173 9.62945 14.7492 10.4725 14.1105 11.3703C13.5949 12.1004 12.7783 12.5493 11.8659 12.5493C10.6204 12.5493 9.89498 11.7901 9.89498 10.6697C9.89498 8.45785 12.3722 8.05642 14.7173 8.05642V8.61848ZM17.9883 14.9435C17.7739 15.0968 17.4637 15.1078 17.2219 15.0055C16.1452 14.2902 15.9536 13.9581 15.3605 13.2756C13.5813 14.7282 12.3221 15.1625 10.0137 15.1625C7.28544 15.1625 5.15942 13.8157 5.15942 11.1185C5.15942 9.01268 6.58748 7.57828 8.61753 6.87758C10.3786 6.25705 12.8376 6.14757 14.7173 5.97609V5.64028C14.7173 5.02344 14.7765 4.29351 14.3249 3.76067C13.928 3.28254 13.1707 3.08544 12.5045 3.08544C11.2682 3.08544 10.1641 3.59273 9.89498 4.64386C9.84017 4.8775 9.62582 5.10745 9.33386 5.11837L6.18589 4.84834C5.92134 4.8008 5.62938 4.62932 5.70237 4.30443C6.42775 1.2533 9.8721 0.333496 12.9561 0.333496C14.5347 0.333496 16.5967 0.669305 17.8423 1.62557C19.4208 2.80441 19.2702 4.37744 19.2702 6.08918V10.1331C19.2702 11.3485 19.8998 11.8813 20.4929 12.5383C20.7027 12.7719 20.7484 13.053 20.4837 13.2281C19.8222 13.6697 18.6452 14.491 17.9974 14.9509L17.9882 14.9435" fill="#1B1818"/>
    <path d="M21.5218 16.4804C11.4019 20.3334 5.12131 17.1097 1.10092 15.1517C0.852145 15.0283 0.429305 15.1806 0.796176 15.5177C2.13557 16.8169 6.52504 19.9484 12.2546 19.9484C17.988 19.9484 21.3989 17.4457 21.8256 17.0091C22.2494 16.5762 21.9501 16.3374 21.5217 16.4804H21.5218ZM24.364 15.2247C24.0922 14.9416 22.7115 14.8888 21.8425 14.9742C20.9722 15.0572 19.6659 15.4827 19.7795 15.7382C19.8378 15.8339 19.9567 15.7909 20.5546 15.7479C21.1541 15.7001 22.8335 15.5305 23.1835 15.8965C23.5351 16.265 22.6478 18.0204 22.4858 18.3035C22.3292 18.5867 22.5456 18.6597 22.8397 18.4711C23.1297 18.2826 23.6548 17.7945 24.0071 17.1037C24.3571 16.4092 24.5705 15.4403 24.3639 15.2247H24.364Z" fill="#FF9900"/>
    <path fill-rule="evenodd" clip-rule="evenodd" d="M14.7173 8.61848C14.7173 9.62945 14.7492 10.4725 14.1105 11.3703C13.5949 12.1004 12.7783 12.5493 11.8659 12.5493C10.6204 12.5493 9.89498 11.7901 9.89498 10.6697C9.89498 8.45785 12.3722 8.05642 14.7173 8.05642V8.61848ZM17.9883 14.9435C17.7739 15.0968 17.4637 15.1078 17.2219 15.0055C16.1452 14.2902 15.9536 13.9581 15.3605 13.2756C13.5813 14.7282 12.3221 15.1625 10.0137 15.1625C7.28544 15.1625 5.15942 13.8157 5.15942 11.1185C5.15942 9.01268 6.58748 7.57828 8.61753 6.87758C10.3786 6.25705 12.8376 6.14757 14.7173 5.97609V5.64028C14.7173 5.02344 14.7765 4.29351 14.3249 3.76067C13.928 3.28254 13.1707 3.08544 12.5045 3.08544C11.2682 3.08544 10.1641 3.59273 9.89498 4.64386C9.84017 4.8775 9.62582 5.10745 9.33386 5.11837L6.18589 4.84834C5.92134 4.8008 5.62938 4.62932 5.70237 4.30443C6.42775 1.2533 9.8721 0.333496 12.9561 0.333496C14.5347 0.333496 16.5967 0.669305 17.8423 1.62557C19.4208 2.80441 19.2702 4.37744 19.2702 6.08918V10.1331C19.2702 11.3485 19.8998 11.8813 20.4929 12.5383C20.7027 12.7719 20.7484 13.053 20.4837 13.2281C19.8222 13.6697 18.6452 14.491 17.9974 14.9509L17.9882 14.9435" fill="#1B1818"/>
  </g>
  <defs>
    <clipPath id="clip0_225_32398">
      <rect width="25" height="20" fill="white" transform="translate(0 0.333496)"/>
    </clipPath>
  </defs>
</svg>