<svg xmlns="http://www.w3.org/2000/svg" width="108" height="36" viewBox="0 0 108 36" fill="none">
  <rect x="0.45" y="0.45" width="107.1" height="35.1" rx="5.85" fill="black"/>
  <rect x="0.45" y="0.45" width="107.1" height="35.1" rx="5.85" stroke="#A6A6A6" stroke-width="0.9"/>
  <path d="M22.2919 18.2707C22.3114 16.7578 23.1239 15.3263 24.4129 14.5339C23.5997 13.3726 22.2378 12.6363 20.8208 12.5919C19.3095 12.4333 17.8443 13.4963 17.0742 13.4963C16.2892 13.4963 15.1034 12.6077 13.8265 12.634C12.1622 12.6877 10.6106 13.634 9.80092 15.089C8.06032 18.1026 9.35865 22.5316 11.026 24.9675C11.8602 26.1603 12.8352 27.4927 14.1109 27.4455C15.3592 27.3937 15.8255 26.6495 17.3323 26.6495C18.8252 26.6495 19.2626 27.4455 20.5642 27.4155C21.9038 27.3937 22.7477 26.2173 23.5527 25.0132C24.1521 24.1633 24.6133 23.2239 24.9193 22.23C23.3451 21.5642 22.2938 19.9799 22.2919 18.2707Z" fill="white"/>
  <path d="M19.8334 10.9899C20.5638 10.1132 20.9237 8.9862 20.8365 7.84839C19.7207 7.96559 18.6899 8.49889 17.9497 9.34204C17.2258 10.1658 16.8491 11.273 16.9204 12.3673C18.0366 12.3788 19.134 11.8599 19.8334 10.9899Z" fill="white"/>
  <path d="M73.3731 17.2808V19.3427H72.0807V20.6949H73.3731V25.2894C73.3731 26.8583 74.0829 27.4858 75.8684 27.4858C76.1821 27.4858 76.481 27.4484 76.7424 27.4036V26.0664C76.5183 26.0888 76.3764 26.1037 76.1298 26.1037C75.3305 26.1037 74.9793 25.7302 74.9793 24.8785V20.6949H76.7424V19.3427H74.9793V17.2808H73.3731Z" fill="white"/>
  <path d="M81.2909 27.5979C83.6666 27.5979 85.1234 26.0066 85.1234 23.3694C85.1234 20.7472 83.6591 19.1485 81.2909 19.1485C78.9152 19.1485 77.451 20.7472 77.451 23.3694C77.451 26.0066 78.9077 27.5979 81.2909 27.5979ZM81.2909 26.171C79.8939 26.171 79.1094 25.1475 79.1094 23.3694C79.1094 21.6064 79.8939 20.5754 81.2909 20.5754C82.6804 20.5754 83.4723 21.6064 83.4723 23.3694C83.4723 25.14 82.6804 26.171 81.2909 26.171Z" fill="white"/>
  <path d="M86.3698 27.441H87.976V22.6373C87.976 21.4943 88.8351 20.7248 90.0528 20.7248C90.3367 20.7248 90.8148 20.7771 90.9493 20.8219V19.2381C90.7775 19.1933 90.4712 19.1709 90.2321 19.1709C89.1713 19.1709 88.2673 19.7536 88.0357 20.553H87.9162V19.3054H86.3698V27.441Z" fill="white"/>
  <path d="M94.9375 20.5156C96.1253 20.5156 96.9023 21.3449 96.9396 22.6224H92.8307C92.9204 21.3524 93.7496 20.5156 94.9375 20.5156ZM96.9322 25.2446C96.6333 25.8796 95.9684 26.2307 94.9972 26.2307C93.7123 26.2307 92.883 25.3268 92.8307 23.8999V23.8102H98.5757V23.2499C98.5757 20.6949 97.2086 19.1485 94.9449 19.1485C92.6514 19.1485 91.1947 20.7995 91.1947 23.3993C91.1947 25.9991 92.6216 27.5979 94.9524 27.5979C96.8126 27.5979 98.1125 26.7014 98.4786 25.2446H96.9322Z" fill="white"/>
  <path d="M62.8399 24.4366C62.9638 26.4344 64.6286 27.712 67.1064 27.712C69.7546 27.712 71.4116 26.3724 71.4116 24.2353C71.4116 22.555 70.4669 21.6259 68.175 21.0916L66.9438 20.7896C65.4881 20.4489 64.8996 19.9921 64.8996 19.1945C64.8996 18.1879 65.8133 17.5297 67.1838 17.5297C68.4847 17.5297 69.3829 18.1724 69.5455 19.2023H71.2335C71.1328 17.3207 69.4758 15.9966 67.2071 15.9966C64.768 15.9966 63.1419 17.3207 63.1419 19.3107C63.1419 20.9522 64.0633 21.9278 66.0843 22.4002L67.5245 22.7486C69.0035 23.0971 69.6539 23.6081 69.6539 24.4599C69.6539 25.451 68.6318 26.1711 67.238 26.1711C65.7436 26.1711 64.706 25.4974 64.5589 24.4366H62.8399Z" fill="white"/>
  <path d="M46.2013 19.1709C45.0957 19.1709 44.1394 19.7237 43.6463 20.6501H43.5268V19.3054H41.9804V30.1454H43.5866V26.2083H43.7136C44.1394 27.0674 45.0583 27.5755 46.2163 27.5755C48.2707 27.5755 49.5781 25.9543 49.5781 23.3694C49.5781 20.7846 48.2707 19.1709 46.2013 19.1709ZM45.7456 26.1336C44.4009 26.1336 43.5567 25.0728 43.5567 23.3769C43.5567 21.6736 44.4009 20.6128 45.7531 20.6128C47.1127 20.6128 47.927 21.6512 47.927 23.3694C47.927 25.0952 47.1127 26.1336 45.7456 26.1336Z" fill="white"/>
  <path d="M55.1984 19.1709C54.0928 19.1709 53.1365 19.7237 52.6434 20.6501H52.5239V19.3054H50.9775V30.1454H52.5837V26.2083H52.7107C53.1365 27.0674 54.0554 27.5755 55.2134 27.5755C57.2678 27.5755 58.5752 25.9543 58.5752 23.3694C58.5752 20.7846 57.2678 19.1709 55.1984 19.1709ZM54.7427 26.1336C53.398 26.1336 52.5538 25.0728 52.5538 23.3769C52.5538 21.6736 53.398 20.6128 54.7502 20.6128C56.1099 20.6128 56.9242 21.6512 56.9242 23.3694C56.9242 25.0952 56.1099 26.1336 54.7427 26.1336Z" fill="white"/>
  <path d="M39.0986 27.441H40.9414L36.9072 16.2676H35.0411L31.007 27.441H32.7879L33.8177 24.4753H38.0765L39.0986 27.441ZM35.8852 18.2963H36.0168L37.6351 23.0196H34.2591L35.8852 18.2963Z" fill="white"/>
  <path d="M32.0859 7.83992V13.23H34.0321C35.6383 13.23 36.5684 12.2402 36.5684 10.5182C36.5684 8.82231 35.6308 7.83992 34.0321 7.83992H32.0859ZM32.9227 8.60193H33.9387C35.0555 8.60193 35.7167 9.31165 35.7167 10.5294C35.7167 11.7658 35.0667 12.468 33.9387 12.468H32.9227V8.60193Z" fill="white"/>
  <path d="M39.4169 13.3085C40.6048 13.3085 41.3332 12.5128 41.3332 11.1943C41.3332 9.88315 40.601 9.08379 39.4169 9.08379C38.2291 9.08379 37.497 9.88315 37.497 11.1943C37.497 12.5128 38.2254 13.3085 39.4169 13.3085ZM39.4169 12.595C38.7184 12.595 38.3262 12.0833 38.3262 11.1943C38.3262 10.3127 38.7184 9.79724 39.4169 9.79724C40.1117 9.79724 40.5077 10.3127 40.5077 11.1943C40.5077 12.0795 40.1117 12.595 39.4169 12.595Z" fill="white"/>
  <path d="M47.5361 9.16223H46.733L46.0083 12.2663H45.9448L45.1081 9.16223H44.3386L43.5019 12.2663H43.4422L42.7138 9.16223H41.8995L43.0201 13.23H43.8456L44.6823 10.2343H44.7458L45.5862 13.23H46.4192L47.5361 9.16223Z" fill="white"/>
  <path d="M48.461 13.23H49.2641V10.8506C49.2641 10.2156 49.6413 9.81965 50.2353 9.81965C50.8292 9.81965 51.1131 10.1446 51.1131 10.7983V13.23H51.9162V10.5966C51.9162 9.62915 51.4156 9.08379 50.5079 9.08379C49.8953 9.08379 49.4919 9.35647 49.294 9.80845H49.2342V9.16223H48.461V13.23Z" fill="white"/>
  <path d="M53.181 13.23H53.9841V7.57471H53.181V13.23Z" fill="white"/>
  <path d="M57.0045 13.3085C58.1923 13.3085 58.9207 12.5128 58.9207 11.1943C58.9207 9.88315 58.1886 9.08379 57.0045 9.08379C55.8166 9.08379 55.0845 9.88315 55.0845 11.1943C55.0845 12.5128 55.8129 13.3085 57.0045 13.3085ZM57.0045 12.595C56.306 12.595 55.9137 12.0833 55.9137 11.1943C55.9137 10.3127 56.306 9.79724 57.0045 9.79724C57.6992 9.79724 58.0952 10.3127 58.0952 11.1943C58.0952 12.0795 57.6992 12.595 57.0045 12.595Z" fill="white"/>
  <path d="M61.3136 12.6212C60.8765 12.6212 60.559 12.4083 60.559 12.0422C60.559 11.6836 60.813 11.4931 61.3733 11.4557L62.3669 11.3922V11.7322C62.3669 12.2364 61.9187 12.6212 61.3136 12.6212ZM61.1081 13.2973C61.6423 13.2973 62.0868 13.0657 62.3296 12.6585H62.3931V13.23H63.1663V10.4509C63.1663 9.5918 62.5911 9.08379 61.5713 9.08379C60.6487 9.08379 59.9913 9.53203 59.9091 10.2305H60.686C60.7757 9.94292 61.0857 9.77856 61.534 9.77856C62.083 9.77856 62.3669 10.0214 62.3669 10.4509V10.8021L61.265 10.8656C60.2976 10.9253 59.7522 11.3474 59.7522 12.0795C59.7522 12.8229 60.3237 13.2973 61.1081 13.2973Z" fill="white"/>
  <path d="M65.8916 13.2973C66.4519 13.2973 66.9263 13.0321 67.1691 12.5875H67.2326V13.23H68.0021V7.57471H67.199V9.80845H67.1392C66.9188 9.36021 66.4482 9.095 65.8916 9.095C64.8644 9.095 64.2032 9.9093 64.2032 11.1943C64.2032 12.483 64.8569 13.2973 65.8916 13.2973ZM66.1195 9.81592C66.7918 9.81592 67.2139 10.3501 67.2139 11.198C67.2139 12.0497 66.7956 12.5763 66.1195 12.5763C65.4396 12.5763 65.0325 12.0571 65.0325 11.1943C65.0325 10.3389 65.4434 9.81592 66.1195 9.81592Z" fill="white"/>
  <path d="M73.2099 13.3085C74.3978 13.3085 75.1262 12.5128 75.1262 11.1943C75.1262 9.88315 74.394 9.08379 73.2099 9.08379C72.0221 9.08379 71.2899 9.88315 71.2899 11.1943C71.2899 12.5128 72.0183 13.3085 73.2099 13.3085ZM73.2099 12.595C72.5114 12.595 72.1192 12.0833 72.1192 11.1943C72.1192 10.3127 72.5114 9.79724 73.2099 9.79724C73.9047 9.79724 74.3006 10.3127 74.3006 11.1943C74.3006 12.0795 73.9047 12.595 73.2099 12.595Z" fill="white"/>
  <path d="M76.1892 13.23H76.9923V10.8506C76.9923 10.2156 77.3696 9.81965 77.9635 9.81965C78.5574 9.81965 78.8413 10.1446 78.8413 10.7983V13.23H79.6444V10.5966C79.6444 9.62915 79.1439 9.08379 78.2362 9.08379C77.6236 9.08379 77.2202 9.35647 77.0222 9.80845H76.9625V9.16223H76.1892V13.23Z" fill="white"/>
  <path d="M83.3432 8.14995V9.18091H82.697V9.85701H83.3432V12.1542C83.3432 12.9387 83.698 13.2524 84.5908 13.2524C84.7477 13.2524 84.8971 13.2338 85.0278 13.2114V12.5427C84.9158 12.5539 84.8448 12.5614 84.7215 12.5614C84.3218 12.5614 84.1463 12.3746 84.1463 11.9488V9.85701H85.0278V9.18091H84.1463V8.14995H83.3432Z" fill="white"/>
  <path d="M86.1058 13.23H86.9089V10.8543C86.9089 10.238 87.275 9.82339 87.9324 9.82339C88.5002 9.82339 88.8028 10.1521 88.8028 10.8021V13.23H89.6059V10.6041C89.6059 9.63662 89.0717 9.08752 88.2051 9.08752C87.5925 9.08752 87.1629 9.36021 86.965 9.81592H86.9015V7.57471H86.1058V13.23Z" fill="white"/>
  <path d="M92.503 9.76736C93.0969 9.76736 93.4854 10.182 93.5041 10.8207H91.4496C91.4945 10.1857 91.9091 9.76736 92.503 9.76736ZM93.5003 12.1318C93.3509 12.4493 93.0185 12.6249 92.5329 12.6249C91.8904 12.6249 91.4758 12.1729 91.4496 11.4595V11.4146H94.3221V11.1345C94.3221 9.85701 93.6386 9.08379 92.5067 9.08379C91.36 9.08379 90.6316 9.9093 90.6316 11.2092C90.6316 12.5091 91.345 13.3085 92.5105 13.3085C93.4406 13.3085 94.0905 12.8602 94.2736 12.1318H93.5003Z" fill="white"/>
</svg>