<svg xmlns="http://www.w3.org/2000/svg" width="16" height="16" viewBox="0 0 16 16" fill="none">
<path fill-rule="evenodd" clip-rule="evenodd" d="M6.58294 1.87172C5.54155 0.830317 3.85311 0.830319 2.81171 1.87172L2.45469 2.22874C1.96244 2.72098 1.62576 3.45863 1.8178 4.2577C2.11221 5.48271 2.99813 7.715 5.64013 10.357C8.28214 12.999 10.5144 13.8849 11.7394 14.1793C12.5385 14.3714 13.2761 14.0347 13.7684 13.5424L14.1254 13.1854C15.1668 12.144 15.1668 10.4556 14.1254 9.41419L13.5062 8.79494C12.6573 7.9461 11.3459 7.76907 10.3024 8.36245L10.2381 8.39904C9.81043 8.6422 9.31917 8.62233 8.97115 8.37046C8.69033 8.16723 8.42194 7.95335 8.23286 7.76427C8.04378 7.57519 7.82991 7.3068 7.62667 7.02598C7.37481 6.67796 7.35493 6.1867 7.59809 5.75908L7.63468 5.69473C8.22807 4.65119 8.05104 3.33981 7.2022 2.49097L6.58294 1.87172ZM3.75452 2.81453C4.27522 2.29383 5.11944 2.29383 5.64013 2.81452L6.25939 3.43378C6.68381 3.8582 6.77232 4.51389 6.47563 5.03566L6.43904 5.10001C5.9691 5.92645 5.95261 6.98703 6.54653 7.80769C6.76468 8.10913 7.02686 8.44389 7.29005 8.70708C7.55325 8.97028 7.88801 9.23245 8.18944 9.4506C9.0101 10.0445 10.0707 10.028 10.8971 9.5581L10.9615 9.5215C11.4832 9.22481 12.1389 9.31333 12.5634 9.73775L13.1826 10.357C13.7033 10.8777 13.7033 11.7219 13.1826 12.2426L12.8256 12.5996C12.5677 12.8575 12.2834 12.9388 12.051 12.8829C11.0716 12.6475 9.05606 11.8873 6.58294 9.41419C4.10983 6.94107 3.34959 4.92549 3.11422 3.94613C3.05836 3.7137 3.13959 3.42945 3.39749 3.17155L3.75452 2.81453Z" fill="white"/>
</svg>