<!-- <svg xmlns="http://www.w3.org/2000/svg" width="16" height="16" viewBox="0 0 16 16" fill="currentColor">
  <path fill-rule="evenodd" clip-rule="evenodd" d="M1.66667 0.666656C1.29848 0.666656 1 0.965133 1 1.33332C1 1.70151 1.29848 1.99999 1.66667 1.99999C2.15228 1.99999 2.57653 2.35285 2.66387 2.84933L3.12113 5.44845L3.12153 5.45075L3.4145 7.08804C3.59773 8.11209 3.74405 8.92984 3.92904 9.57945C4.11982 10.2494 4.36707 10.8006 4.78701 11.2664C5.07544 11.5864 5.41291 11.8603 5.78691 12.0788C6.32871 12.3955 6.92597 12.5349 7.63609 12.6016C8.32789 12.6667 9.18536 12.6667 10.2655 12.6667H10.5939C11.0743 12.6667 11.4704 12.6667 11.7967 12.6429C12.1366 12.6182 12.446 12.5655 12.7462 12.4375C13.1839 12.2509 13.5673 11.9575 13.8576 11.5832C14.0582 11.3247 14.1833 11.0398 14.2859 10.7215C14.3839 10.4177 14.4732 10.0433 14.5805 9.59346L14.594 9.53671C14.7572 8.85298 14.8905 8.29433 14.955 7.83816C15.0214 7.36879 15.0287 6.92732 14.8775 6.5018C14.6651 5.90359 14.2469 5.39998 13.6997 5.07189C13.3142 4.84077 12.8784 4.75034 12.3948 4.70799C11.9226 4.66664 11.331 4.66665 10.601 4.66666H4.3374L3.97704 2.61831C3.7793 1.49428 2.80956 0.666656 1.66667 0.666656ZM10.5698 5.99999C11.3384 5.99999 11.8714 6.00059 12.2785 6.03624C12.6808 6.07147 12.8819 6.13621 13.0141 6.21542C13.3024 6.38831 13.5147 6.6486 13.6211 6.94806C13.6675 7.07861 13.6887 7.2707 13.6348 7.65139C13.5801 8.03816 13.4621 8.53573 13.2894 9.25942C13.1747 9.74018 13.097 10.0638 13.0169 10.3124C12.9397 10.5519 12.8737 10.6763 12.8042 10.7659C12.6554 10.9577 12.456 11.1118 12.2233 11.211C12.1112 11.2587 11.964 11.2939 11.7 11.3131C11.4277 11.3329 11.0803 11.3333 10.5698 11.3333H10.2992C9.1779 11.3333 8.38302 11.3326 7.76087 11.2742C7.14985 11.2167 6.76783 11.1078 6.45968 10.9277C6.20289 10.7776 5.97284 10.5905 5.77734 10.3737C5.54522 10.1162 5.37217 9.77887 5.21139 9.21427C5.04693 8.63675 4.91165 7.88519 4.72074 6.81824L4.57432 5.99999H10.5698Z" fill="currentColor"/>
  <path d="M7 13.8333C7 14.2936 6.6269 14.6667 6.16667 14.6667C5.70643 14.6667 5.33333 14.2936 5.33333 13.8333C5.33333 13.3731 5.70643 13 6.16667 13C6.6269 13 7 13.3731 7 13.8333Z" fill="currentColor"/>
  <path d="M12.1667 14.6667C12.6269 14.6667 13 14.2936 13 13.8333C13 13.3731 12.6269 13 12.1667 13C11.7064 13 11.3333 13.3731 11.3333 13.8333C11.3333 14.2936 11.7064 14.6667 12.1667 14.6667Z" fill="currentColor"/>
</svg> -->

<svg xmlns="http://www.w3.org/2000/svg" width="16" height="16" viewBox="0 0 16 16" fill="currentColor">
  <path fillRule="evenodd" clipRule="evenodd" d="M1.66667 0.666656C1.29848 0.666656 1 0.965133 1 1.33332C1 1.70151 1.29848 1.99999 1.66667 1.99999C2.15228 1.99999 2.57653 2.35285 2.66387 2.84933L3.12113 5.44845L3.12153 5.45075L3.4145 7.08804C3.59773 8.11209 3.74405 8.92984 3.92904 9.57945C4.11982 10.2494 4.36707 10.8006 4.78701 11.2664C5.07544 11.5864 5.41291 11.8603 5.78691 12.0788C6.32871 12.3955 6.92597 12.5349 7.63609 12.6016C8.32789 12.6667 9.18536 12.6667 10.2655 12.6667H10.5939C11.0743 12.6667 11.4704 12.6667 11.7967 12.6429C12.1366 12.6182 12.446 12.5655 12.7462 12.4375C13.1839 12.2509 13.5673 11.9575 13.8576 11.5832C14.0582 11.3247 14.1833 11.0398 14.2859 10.7215C14.3839 10.4177 14.4732 10.0433 14.5805 9.59346L14.594 9.53671C14.7572 8.85298 14.8905 8.29433 14.955 7.83816C15.0214 7.36879 15.0287 6.92732 14.8775 6.5018C14.6651 5.90359 14.2469 5.39998 13.6997 5.07189C13.3142 4.84077 12.8784 4.75034 12.3948 4.70799C11.9226 4.66664 11.331 4.66665 10.601 4.66666H4.3374L3.97704 2.61831C3.7793 1.49428 2.80956 0.666656 1.66667 0.666656ZM10.5698 5.99999C11.3384 5.99999 11.8714 6.00059 12.2785 6.03624C12.6808 6.07147 12.8819 6.13621 13.0141 6.21542C13.3024 6.38831 13.5147 6.6486 13.6211 6.94806C13.6675 7.07861 13.6887 7.2707 13.6348 7.65139C13.5801 8.03816 13.4621 8.53573 13.2894 9.25942C13.1747 9.74018 13.097 10.0638 13.0169 10.3124C12.9397 10.5519 12.8737 10.6763 12.8042 10.7659C12.6554 10.9577 12.456 11.1118 12.2233 11.211C12.1112 11.2587 11.964 11.2939 11.7 11.3131C11.4277 11.3329 11.0803 11.3333 10.5698 11.3333H10.2992C9.1779 11.3333 8.38302 11.3326 7.76087 11.2742C7.14985 11.2167 6.76783 11.1078 6.45968 10.9277C6.20289 10.7776 5.97284 10.5905 5.77734 10.3737C5.54522 10.1162 5.37217 9.77887 5.21139 9.21427C5.04693 8.63675 4.91165 7.88519 4.72074 6.81824L4.57432 5.99999H10.5698Z" fill="currentColor"/>
  <path d="M7 13.8333C7 14.2936 6.6269 14.6667 6.16667 14.6667C5.70643 14.6667 5.33333 14.2936 5.33333 13.8333C5.33333 13.3731 5.70643 13 6.16667 13C6.6269 13 7 13.3731 7 13.8333Z" fill="currentColor"/>
  <path d="M12.1667 14.6667C12.6269 14.6667 13 14.2936 13 13.8333C13 13.3731 12.6269 13 12.1667 13C11.7064 13 11.3333 13.3731 11.3333 13.8333C11.3333 14.2936 11.7064 14.6667 12.1667 14.6667Z" fill="currentColor"/>
</svg>