<svg xmlns="http://www.w3.org/2000/svg" width="16" height="16" viewBox="0 0 16 16" fill="none">
  <path d="M2.86309 9.32185C3.05353 9.63697 2.95245 10.0468 2.63734 10.2372C2.32222 10.4277 1.91239 10.3266 1.72196 10.0115C1.45122 9.56349 1.26754 9.17745 1.15953 8.92824C1.00487 8.57141 1.02731 8.16966 1.21573 7.8332C1.50324 7.31979 2.22954 6.13289 3.3489 5.06645C4.46568 4.00246 6.03709 3 7.99982 3C9.96255 3 11.534 4.00246 12.6508 5.06645C13.7701 6.13289 14.4964 7.31979 14.7839 7.8332C14.9723 8.16966 14.9948 8.57141 14.8401 8.92824C14.7321 9.17745 14.5484 9.56349 14.2777 10.0115C14.0873 10.3266 13.6774 10.4277 13.3623 10.2372C13.0472 10.0468 12.9461 9.63697 13.1366 9.32185C13.3543 8.96154 13.5054 8.64993 13.5971 8.44295C13.3266 7.96622 12.6859 6.94154 11.731 6.0318C10.7447 5.09211 9.48646 4.33333 7.99982 4.33333C6.51319 4.33333 5.25493 5.09211 4.26861 6.0318C3.31373 6.94155 2.67309 7.96622 2.40259 8.44295C2.49424 8.64993 2.64534 8.96154 2.86309 9.32185Z" fill="#1B1818"/>
  <path fill-rule="evenodd" clip-rule="evenodd" d="M7.99982 5.33333C6.15887 5.33333 4.66649 6.82572 4.66649 8.66667C4.66649 10.5076 6.15887 12 7.99982 12C9.84077 12 11.3332 10.5076 11.3332 8.66667C11.3332 6.82572 9.84077 5.33333 7.99982 5.33333ZM5.99982 8.66667C5.99982 7.5621 6.89525 6.66667 7.99982 6.66667C9.10439 6.66667 9.99982 7.5621 9.99982 8.66667C9.99982 9.77124 9.10439 10.6667 7.99982 10.6667C6.89525 10.6667 5.99982 9.77124 5.99982 8.66667Z" fill="#1B1818"/>
</svg>