<svg xmlns="http://www.w3.org/2000/svg" width="16" height="16" viewBox="0 0 16 16" fill="none">
  <path fill-rule="evenodd" clip-rule="evenodd" d="M8.00002 2C4.31812 2 1.33335 4.98477 1.33335 8.66667V10.6561C1.33322 10.6637 1.33322 10.6713 1.33335 10.6789V12.2745C1.33335 13.2275 2.10588 14 3.05884 14C4.0118 14 4.78433 13.2275 4.78433 12.2745V10.8338C4.78433 9.53927 3.6411 8.93968 2.66668 9.13852V8.66667C2.66668 5.72115 5.0545 3.33333 8.00002 3.33333C10.9455 3.33333 13.3334 5.72115 13.3334 8.66667V9.13147C12.3592 8.93236 11.2157 9.53011 11.2157 10.8259V12.2745C11.2157 12.5921 11.3015 12.8897 11.4513 13.1454C10.8612 13.4387 10.0559 13.6667 9.00002 13.6667C8.63183 13.6667 8.33335 13.9652 8.33335 14.3334C8.33335 14.7016 8.63183 15 9.00002 15C10.6293 15 11.837 14.5404 12.6643 13.9779C12.7545 13.9924 12.8469 14 12.9412 14C13.8942 14 14.6667 13.2275 14.6667 12.2745V10.6785C14.6668 10.6712 14.6668 10.6638 14.6667 10.6565V8.66667C14.6667 4.98477 11.6819 2 8.00002 2ZM12.8346 12.652C12.8685 12.6616 12.9043 12.6667 12.9412 12.6667C13.1578 12.6667 13.3334 12.4911 13.3334 12.2745V10.7255C13.3059 10.5997 13.2493 10.5359 13.1975 10.4987C13.1301 10.4504 13.0306 10.4204 12.9173 10.4289C12.804 10.4374 12.7101 10.482 12.6507 10.5399C12.6004 10.5889 12.549 10.6709 12.549 10.8259V12.2745C12.549 12.4207 12.629 12.5482 12.7476 12.6156C12.7773 12.6256 12.8064 12.6378 12.8346 12.652ZM2.66668 12.2745V10.7284C2.69507 10.6047 2.75165 10.5417 2.8035 10.5049C2.8712 10.4569 2.9707 10.4274 3.08362 10.4363C3.19654 10.4452 3.29017 10.4899 3.3495 10.548C3.3999 10.5973 3.451 10.6794 3.451 10.8338V12.2745C3.451 12.4911 3.27542 12.6667 3.05884 12.6667C2.84226 12.6667 2.66668 12.4911 2.66668 12.2745Z" fill="white"/>
</svg>