<svg xmlns="http://www.w3.org/2000/svg" width="16" height="16" viewBox="0 0 16 16" fill="none">
  <path fill-rule="evenodd" clip-rule="evenodd" d="M6.97218 1.82077C7.39904 2.03695 7.74654 2.28998 8.00004 2.50271C8.25352 2.28998 8.601 2.03695 9.02785 1.82077C9.99514 1.33087 11.3873 1.02788 12.9529 1.82077C13.953 2.32725 14.6295 3.09362 14.9979 4.02409C15.3613 4.94204 15.4107 5.98127 15.2358 7.03564C14.9377 8.83204 13.7099 10.435 12.4489 11.6701C11.1721 12.9206 9.77216 13.8796 8.98264 14.3796C8.37833 14.7624 7.62177 14.7624 7.01745 14.3796C6.22792 13.8796 4.82796 12.9206 3.55118 11.6701C2.29014 10.435 1.0623 8.83204 0.764232 7.03564C0.589288 5.98127 0.638669 4.94204 1.00211 4.02409C1.3705 3.09362 2.04701 2.32725 3.04709 1.82077C4.61269 1.02788 6.00487 1.33088 6.97218 1.82077ZM7.49213 3.85698C7.61878 4.00595 7.80447 4.09184 8.00005 4.09183C8.1953 4.09183 8.38068 4.00625 8.50731 3.85775C8.50746 3.85758 8.5076 3.85741 8.50775 3.85724C8.50792 3.85704 8.50809 3.85684 8.50826 3.85663L8.51838 3.84528C8.52875 3.83376 8.54618 3.8148 8.57033 3.78981C8.61874 3.7397 8.69352 3.66603 8.79201 3.57986C8.99049 3.40624 9.27693 3.18921 9.63028 3.01025C10.3243 2.65877 11.2579 2.45693 12.3505 3.01025C13.0638 3.37151 13.5113 3.89142 13.7582 4.51492C14.01 5.15092 14.0671 5.93333 13.9204 6.8174C13.6928 8.18925 12.7145 9.54354 11.5159 10.7175C10.333 11.8761 9.0197 12.7779 8.26922 13.2532C8.10051 13.3601 7.89958 13.3601 7.73087 13.2532C6.98038 12.7779 5.66705 11.8761 4.48413 10.7175C3.28547 9.54354 2.3072 8.18925 2.07958 6.8174C1.9329 5.93333 1.99 5.15092 2.24181 4.51492C2.48867 3.89142 2.93617 3.37151 3.6495 3.01025C4.74205 2.45694 5.67574 2.65877 6.36977 3.01025C6.72313 3.18921 7.00959 3.40624 7.20807 3.57987C7.30657 3.66604 7.38135 3.73971 7.42977 3.78982C7.45392 3.81481 7.47135 3.83378 7.48172 3.84529L7.49213 3.85698Z" fill="black"/>
</svg>