<svg xmlns="http://www.w3.org/2000/svg" width="16" height="16" viewBox="0 0 16 16" fill="none">
  <path d="M8.00004 4.00001C8.36823 4.00001 8.66671 4.29849 8.66671 4.66668V9.33334C8.66671 9.70153 8.36823 10 8.00004 10C7.63185 10 7.33337 9.70153 7.33337 9.33334V4.66668C7.33337 4.29849 7.63185 4.00001 8.00004 4.00001Z" fill="white"/>
  <path d="M7.16671 11.1667C7.16671 11.6269 7.5398 12 8.00004 12C8.46028 12 8.83337 11.6269 8.83337 11.1667C8.83337 10.7064 8.46028 10.3333 8.00004 10.3333C7.5398 10.3333 7.16671 10.7064 7.16671 11.1667Z" fill="white"/>
  <path fill-rule="evenodd" clip-rule="evenodd" d="M1.33337 8.00001C1.33337 4.31811 4.31814 1.33334 8.00004 1.33334C11.6819 1.33334 14.6667 4.31811 14.6667 8.00001C14.6667 11.6819 11.6819 14.6667 8.00004 14.6667C4.31814 14.6667 1.33337 11.6819 1.33337 8.00001ZM8.00004 2.66668C5.05452 2.66668 2.66671 5.05449 2.66671 8.00001C2.66671 10.9455 5.05452 13.3333 8.00004 13.3333C10.9456 13.3333 13.3334 10.9455 13.3334 8.00001C13.3334 5.05449 10.9456 2.66668 8.00004 2.66668Z" fill="white"/>
</svg>