<svg xmlns="http://www.w3.org/2000/svg" width="16" height="16" viewBox="0 0 16 16" fill="none">
  <path fill-rule="evenodd" clip-rule="evenodd" d="M7.99998 3.66668C6.34313 3.66668 4.99998 5.00983 4.99998 6.66668C4.99998 8.32354 6.34313 9.66668 7.99998 9.66668C9.65683 9.66668 11 8.32354 11 6.66668C11 5.00983 9.65683 3.66668 7.99998 3.66668ZM6.33331 6.66668C6.33331 5.74621 7.07951 5.00001 7.99998 5.00001C8.92045 5.00001 9.66665 5.74621 9.66665 6.66668C9.66665 7.58716 8.92045 8.33335 7.99998 8.33335C7.07951 8.33335 6.33331 7.58716 6.33331 6.66668Z" fill="white"/>
  <path fill-rule="evenodd" clip-rule="evenodd" d="M5.20614 2.39467C6.89795 1.2668 9.10201 1.2668 10.7938 2.39467C13.0811 3.91952 13.7232 6.99669 12.2367 9.30905L9.68234 13.2825C8.89506 14.5072 7.1049 14.5072 6.31762 13.2825L3.76325 9.30905C2.27673 6.99669 2.91888 3.91952 5.20614 2.39467ZM5.94574 3.50407C7.18969 2.67478 8.81027 2.67478 10.0542 3.50407C11.736 4.62525 12.2081 6.88782 11.1151 8.58804L8.56077 12.5615C8.29834 12.9697 7.70162 12.9697 7.43919 12.5615L4.88482 8.58804C3.79182 6.88782 4.26398 4.62525 5.94574 3.50407Z" fill="white"/>
</svg>