<svg width="202" height="172" viewBox="0 0 202 172" fill="none" xmlns="http://www.w3.org/2000/svg">
<rect width="202" height="172" fill="black" fill-opacity="0.3"/>
<g filter="url(#filter0_b_0_1)">
<rect x="29.5" y="54" width="143" height="64" rx="32" fill="#6A1B9A" fill-opacity="0.3"/>
<path d="M66.288 90.68C63.804 90.68 61.884 88.76 61.884 86.18C61.884 83.6 63.804 81.704 66.288 81.704C68.784 81.704 70.716 83.6 70.716 86.18C70.716 88.76 68.784 90.68 66.288 90.68ZM66.288 89.048C67.872 89.048 68.832 87.764 68.832 86.18C68.832 84.596 67.872 83.336 66.288 83.336C64.716 83.336 63.756 84.596 63.756 86.18C63.756 87.764 64.716 89.048 66.288 89.048ZM75.7299 87.8V84.092H77.3859V90.5H75.8619V89.66C75.5139 90.224 74.8059 90.62 73.9899 90.62C72.7059 90.62 71.7699 89.84 71.7699 88.172V84.092H73.4379V87.848C73.4379 88.748 73.8819 89.144 74.5539 89.144C75.1539 89.144 75.7299 88.664 75.7299 87.8ZM82.8686 88.88V90.332C82.4606 90.536 82.0766 90.62 81.5846 90.62C80.2646 90.62 79.4366 89.864 79.4366 88.424V85.52H78.1406V84.092H79.4366V82.196H81.0926V84.092H82.9286V85.52H81.0926V88.04C81.0926 88.784 81.4286 89.084 82.0286 89.084C82.3406 89.084 82.6286 89.012 82.8686 88.88ZM90.4989 90.68C88.0149 90.68 86.0949 88.76 86.0949 86.18C86.0949 83.6 88.0149 81.704 90.4989 81.704C92.9949 81.704 94.9269 83.6 94.9269 86.18C94.9269 88.76 92.9949 90.68 90.4989 90.68ZM90.4989 89.048C92.0829 89.048 93.0429 87.764 93.0429 86.18C93.0429 84.596 92.0829 83.336 90.4989 83.336C88.9269 83.336 87.9669 84.596 87.9669 86.18C87.9669 87.764 88.9269 89.048 90.4989 89.048ZM98.3089 90.5H96.6529V85.52H95.3569V84.092H96.6529V83.744C96.6529 82.472 97.3369 81.752 98.6689 81.752C99.0769 81.752 99.4249 81.824 99.7009 81.944V83.264C99.5209 83.192 99.2809 83.156 99.0649 83.156C98.6089 83.156 98.3089 83.336 98.3089 83.78V84.092H99.9769V85.52H98.3089V90.5ZM110.098 87.824C110.098 89.468 108.778 90.62 106.618 90.62C104.446 90.62 103.09 89.456 102.958 87.632H104.806C104.854 88.58 105.466 89.192 106.582 89.192C107.506 89.192 108.166 88.784 108.166 88.088C108.166 87.548 107.746 87.224 107.014 87.08L105.598 86.804C104.29 86.552 103.282 85.844 103.282 84.416C103.282 82.88 104.638 81.776 106.498 81.776C108.43 81.776 109.846 82.904 109.966 84.704H108.118C108.058 83.804 107.434 83.192 106.522 83.192C105.634 83.192 105.13 83.696 105.13 84.296C105.13 84.884 105.67 85.136 106.294 85.256L107.77 85.556C109.282 85.856 110.098 86.552 110.098 87.824ZM115.33 88.88V90.332C114.922 90.536 114.538 90.62 114.046 90.62C112.726 90.62 111.898 89.864 111.898 88.424V85.52H110.602V84.092H111.898V82.196H113.554V84.092H115.39V85.52H113.554V88.04C113.554 88.784 113.89 89.084 114.49 89.084C114.802 89.084 115.09 89.012 115.33 88.88ZM119.099 90.62C117.239 90.62 115.847 89.156 115.847 87.296C115.847 85.424 117.239 83.972 119.099 83.972C120.959 83.972 122.351 85.424 122.351 87.296C122.351 89.156 120.959 90.62 119.099 90.62ZM119.099 89.144C119.927 89.144 120.635 88.484 120.635 87.296C120.635 86.108 119.927 85.46 119.099 85.46C118.271 85.46 117.563 86.108 117.563 87.296C117.563 88.484 118.271 89.144 119.099 89.144ZM126.116 90.62C124.268 90.62 122.996 89.252 122.996 87.296C122.996 85.376 124.316 83.972 126.116 83.972C127.784 83.972 129.02 85.1 129.224 86.828H127.472C127.388 85.976 126.872 85.448 126.116 85.448C125.252 85.448 124.7 86.156 124.7 87.296C124.7 88.448 125.24 89.144 126.116 89.144C126.884 89.144 127.376 88.64 127.472 87.764H129.224C129.032 89.528 127.832 90.62 126.116 90.62ZM131.963 90.5H130.295V81.884H131.963V86.804L134.303 84.092H136.223L133.571 87.164L136.535 90.5H134.411L131.963 87.524V90.5ZM138.899 87.908H137.639L137.219 81.884H139.331L138.899 87.908ZM139.427 89.468C139.427 90.104 138.935 90.56 138.275 90.56C137.615 90.56 137.123 90.104 137.123 89.468C137.123 88.832 137.603 88.364 138.275 88.364C138.947 88.364 139.427 88.832 139.427 89.468Z" fill="white"/>
</g>
<defs>
<filter id="filter0_b_0_1" x="21.5" y="46" width="159" height="80" filterUnits="userSpaceOnUse" color-interpolation-filters="sRGB">
<feFlood flood-opacity="0" result="BackgroundImageFix"/>
<feGaussianBlur in="BackgroundImageFix" stdDeviation="4"/>
<feComposite in2="SourceAlpha" operator="in" result="effect1_backgroundBlur_0_1"/>
<feBlend mode="normal" in="SourceGraphic" in2="effect1_backgroundBlur_0_1" result="shape"/>
</filter>
</defs>
</svg>
