<svg xmlns="http://www.w3.org/2000/svg" width="16" height="17" viewBox="0 0 16 17" fill="none">
  <path d="M4.99968 3.16667C5.36787 3.16667 5.66634 2.86819 5.66634 2.5C5.66634 2.13181 5.36787 1.83334 4.99968 1.83334H3.99968C2.52692 1.83334 1.33301 3.02724 1.33301 4.5V12.5C1.33301 13.9728 2.52692 15.1667 3.99967 15.1667H4.99967C5.36786 15.1667 5.66634 14.8682 5.66634 14.5C5.66634 14.1318 5.36786 13.8333 4.99967 13.8333H3.99967C3.2633 13.8333 2.66634 13.2364 2.66634 12.5L2.66634 4.5C2.66634 3.76362 3.2633 3.16667 3.99968 3.16667H4.99968Z" fill="#1B1818"/>
  <path d="M15.1377 8.97141C15.3981 8.71106 15.3981 8.28895 15.1377 8.0286L12.4711 5.36193C12.2107 5.10158 11.7886 5.10158 11.5283 5.36193C11.2679 5.62228 11.2679 6.04439 11.5283 6.30474L13.0569 7.83334L5.33301 7.83334C4.96482 7.83334 4.66634 8.13181 4.66634 8.5C4.66634 8.86819 4.96482 9.16667 5.33301 9.16667L13.0569 9.16667L11.5283 10.6953C11.2679 10.9556 11.2679 11.3777 11.5283 11.6381C11.7886 11.8984 12.2107 11.8984 12.4711 11.6381L15.1377 8.97141Z" fill="#1B1818"/>
</svg>