<svg xmlns="http://www.w3.org/2000/svg" width="16" height="16" viewBox="0 0 16 16" fill="none">
  <path fill-rule="evenodd" clip-rule="evenodd" d="M8.00002 1.33334C6.15907 1.33334 4.66669 2.82573 4.66669 4.66668C4.66669 6.50763 6.15907 8.00001 8.00002 8.00001C9.84097 8.00001 11.3334 6.50763 11.3334 4.66668C11.3334 2.82573 9.84097 1.33334 8.00002 1.33334ZM6.00002 4.66668C6.00002 3.56211 6.89545 2.66668 8.00002 2.66668C9.10459 2.66668 10 3.56211 10 4.66668C10 5.77125 9.10459 6.66668 8.00002 6.66668C6.89545 6.66668 6.00002 5.77125 6.00002 4.66668Z" fill="#1B1818"/>
  <path fill-rule="evenodd" clip-rule="evenodd" d="M8.00002 15.3333C6.97302 15.3333 5.48657 15.1001 4.37031 14.6116C3.82231 14.3718 3.26499 14.0285 2.94119 13.5316C2.7709 13.2703 2.66324 12.9625 2.66677 12.6188C2.67027 12.2783 2.78231 11.9521 2.97063 11.6485C3.88356 10.1771 5.75121 8.66668 8.00002 8.66668C10.2488 8.66668 12.1165 10.1771 13.0294 11.6485C13.2177 11.9521 13.3298 12.2783 13.3333 12.6188C13.3368 12.9625 13.2291 13.2703 13.0589 13.5316C12.7351 14.0285 12.1777 14.3718 11.6297 14.6116C10.5135 15.1001 9.02702 15.3333 8.00002 15.3333ZM4.10361 12.3515C4.01583 12.493 4.00053 12.5838 4.00003 12.6325C3.99957 12.678 4.01126 12.7315 4.05826 12.8037C4.16905 12.9737 4.43807 13.1858 4.9049 13.3901C5.81832 13.7899 7.11551 14 8.00002 14C8.88453 14 10.1817 13.7899 11.0951 13.3901C11.562 13.1858 11.831 12.9737 11.9418 12.8037C11.9888 12.7315 12.0005 12.678 12 12.6325C11.9995 12.5838 11.9842 12.493 11.8964 12.3515C11.1483 11.1457 9.65624 10 8.00002 10C6.34379 10 4.85172 11.1457 4.10361 12.3515Z" fill="#1B1818"/>
</svg>