<svg xmlns="http://www.w3.org/2000/svg" width="38" height="15" viewBox="0 0 38 15" fill="none">
  <path d="M19.437 5.39757C19.417 6.89323 20.8461 7.72793 21.9227 8.22415C23.0289 8.73336 23.4004 9.05984 23.3962 9.51513C23.3877 10.212 22.5138 10.5196 21.6958 10.5315C20.2688 10.5525 19.4392 10.1671 18.7795 9.87557L18.2654 12.151C18.9272 12.4396 20.1527 12.6912 21.4235 12.7021C24.4063 12.7021 26.3579 11.3093 26.3685 9.1497C26.3801 6.40899 22.3608 6.25723 22.3882 5.03214C22.3977 4.66072 22.7724 4.26434 23.5936 4.1635C23.9999 4.11258 25.1219 4.07364 26.3938 4.62778L26.893 2.42622C26.2091 2.19059 25.3299 1.96494 24.2353 1.96494C21.4277 1.96494 19.4529 3.37673 19.437 5.39757ZM31.6903 2.15464C31.1456 2.15464 30.6865 2.45517 30.4817 2.91645L26.2207 12.5404H29.2014L29.7946 10.9898H33.4371L33.7812 12.5404H36.4083L34.1158 2.15464H31.6903ZM32.1072 4.96026L32.9674 8.86016H30.6115L32.1072 4.96026ZM15.823 2.15464L13.4735 12.5404H16.3138L18.6623 2.15464H15.823ZM11.6211 2.15464L8.66469 9.22359L7.46882 3.21299C7.32844 2.54204 6.7743 2.15464 6.15895 2.15464H1.32585L1.2583 2.45617C2.25046 2.65985 3.37773 2.98834 4.06063 3.33979C4.47861 3.55445 4.59788 3.74216 4.73509 4.25236L7.00018 12.5404H10.002L14.6039 2.15464H11.6211Z" fill="url(#paint0_linear_225_32382)"/>
  <defs>
    <linearGradient id="paint0_linear_225_32382" x1="17.4182" y1="12.9176" x2="17.7122" y2="1.88935" gradientUnits="userSpaceOnUse">
      <stop stop-color="#222357"/>
      <stop offset="1" stop-color="#254AA5"/>
    </linearGradient>
  </defs>
</svg>