<svg xmlns="http://www.w3.org/2000/svg" width="16" height="17" viewBox="0 0 16 17" fill="none">
  <path fill-rule="evenodd" clip-rule="evenodd" d="M7.99977 2.5C4.31787 2.5 1.33311 5.48477 1.33311 9.16667V11.1561C1.33297 11.1637 1.33298 11.1713 1.33311 11.1789V12.7745C1.33311 13.7275 2.10563 14.5 3.0586 14.5C4.01156 14.5 4.78409 13.7275 4.78409 12.7745V11.3338C4.78409 10.0393 3.64085 9.43968 2.66644 9.63852V9.16667C2.66644 6.22115 5.05425 3.83333 7.99977 3.83333C10.9453 3.83333 13.3331 6.22115 13.3331 9.16667V9.63147C12.359 9.43236 11.2155 10.0301 11.2155 11.3259V12.7745C11.2155 13.0921 11.3013 13.3897 11.451 13.6454C10.8609 13.9387 10.0557 14.1667 8.99977 14.1667C8.63158 14.1667 8.33311 14.4652 8.33311 14.8334C8.33311 15.2016 8.63158 15.5 8.99977 15.5C10.629 15.5 11.8368 15.0404 12.6641 14.4779C12.7542 14.4924 12.8467 14.5 12.941 14.5C13.8939 14.5 14.6664 13.7275 14.6664 12.7745V11.1785C14.6666 11.1712 14.6666 11.1638 14.6664 11.1565V9.16667C14.6664 5.48477 11.6817 2.5 7.99977 2.5ZM12.8344 13.152C12.8683 13.1616 12.904 13.1667 12.941 13.1667C13.1575 13.1667 13.3331 12.9911 13.3331 12.7745V11.2255C13.3057 11.0997 13.249 11.0359 13.1973 10.9987C13.1299 10.9504 13.0304 10.9204 12.9171 10.9289C12.8038 10.9374 12.7099 10.982 12.6505 11.0399C12.6002 11.0889 12.5488 11.1709 12.5488 11.3259V12.7745C12.5488 12.9207 12.6288 13.0482 12.7473 13.1156C12.7771 13.1256 12.8062 13.1378 12.8344 13.152ZM2.66644 12.7745V11.2284C2.69482 11.1047 2.75141 11.0417 2.80325 11.0049C2.87095 10.9569 2.97045 10.9274 3.08337 10.9363C3.19629 10.9452 3.28993 10.9899 3.34926 11.048C3.39966 11.0973 3.45075 11.1794 3.45075 11.3338V12.7745C3.45075 12.9911 3.27518 13.1667 3.0586 13.1667C2.84201 13.1667 2.66644 12.9911 2.66644 12.7745Z" fill="#1B1818"/>
</svg>