<svg xmlns="http://www.w3.org/2000/svg" width="16" height="17" viewBox="0 0 16 17" fill="none">
  <path d="M7.99967 4.49999C8.36786 4.49999 8.66634 4.79847 8.66634 5.16666V9.83333C8.66634 10.2015 8.36786 10.5 7.99967 10.5C7.63148 10.5 7.33301 10.2015 7.33301 9.83333V5.16666C7.33301 4.79847 7.63148 4.49999 7.99967 4.49999Z" fill="#1B1818"/>
  <path d="M7.16634 11.6667C7.16634 12.1269 7.53944 12.5 7.99967 12.5C8.45991 12.5 8.83301 12.1269 8.83301 11.6667C8.83301 11.2064 8.45991 10.8333 7.99967 10.8333C7.53944 10.8333 7.16634 11.2064 7.16634 11.6667Z" fill="#1B1818"/>
  <path fill-rule="evenodd" clip-rule="evenodd" d="M1.33301 8.5C1.33301 4.8181 4.31778 1.83333 7.99967 1.83333C11.6816 1.83333 14.6663 4.8181 14.6663 8.5C14.6663 12.1819 11.6816 15.1667 7.99967 15.1667C4.31778 15.1667 1.33301 12.1819 1.33301 8.5ZM7.99967 3.16666C5.05416 3.16666 2.66634 5.55448 2.66634 8.5C2.66634 11.4455 5.05416 13.8333 7.99967 13.8333C10.9452 13.8333 13.333 11.4455 13.333 8.5C13.333 5.55448 10.9452 3.16666 7.99967 3.16666Z" fill="#1B1818"/>
</svg>