<svg width="334" height="250" viewBox="0 0 334 250" fill="none" xmlns="http://www.w3.org/2000/svg">
<g clip-path="url(#clip0_359_42484)">
<path d="M243.96 237.538H237.334L234.181 211.867H243.96V237.538Z" fill="#9E616A"/>
<path d="M247.457 249.069H242.706L241.857 244.563L239.685 249.069H227.083C226.479 249.069 225.89 248.875 225.404 248.516C224.917 248.156 224.558 247.65 224.378 247.07C224.198 246.491 224.208 245.869 224.405 245.296C224.602 244.722 224.976 244.227 225.473 243.882L235.537 236.9V232.345L246.122 232.979L247.457 249.069Z" fill="#2F2E41"/>
<path d="M283.324 229.138L278.007 233.11L260.227 214.4L268.074 208.539L283.324 229.138Z" fill="#9E616A"/>
<path d="M292.98 236.296L289.167 239.144L285.81 236.036L286.744 240.954L276.631 248.508C276.146 248.87 275.559 249.067 274.955 249.07C274.351 249.073 273.762 248.882 273.273 248.525C272.785 248.168 272.423 247.664 272.24 247.085C272.057 246.507 272.064 245.885 272.258 245.31L276.186 233.676L273.48 230.02L282.351 224.185L292.98 236.296Z" fill="#2F2E41"/>
<path d="M251.674 105.089C251.674 105.089 264.246 115.999 258.445 147.1L251.364 177.574L274.458 216.058L267.094 225.056L237.072 183.402L226.192 157.768L223.14 112.144L251.674 105.089Z" fill="#2F2E41"/>
<path d="M232.189 165.073L231.433 176.835L233.747 226.961L244.635 225.056L246.716 189.367L232.189 165.073Z" fill="#2F2E41"/>
<path d="M92.4576 243.573L98.383 243.573L101.202 220.616L92.4568 220.617L92.4576 243.573Z" fill="#FFB6B6"/>
<path d="M90.9463 241.63L92.6141 241.63L99.1254 238.97L102.615 241.63H102.616C104.588 241.63 106.479 242.417 107.874 243.818C109.268 245.218 110.052 247.118 110.052 249.099V249.342L90.9466 249.343L90.9463 241.63Z" fill="#2F2E41"/>
<path d="M115.419 239.823L121.199 241.133L128.983 219.364L120.453 217.429L115.419 239.823Z" fill="#FFB6B6"/>
<path d="M114.371 237.593L115.998 237.962L122.932 236.808L125.753 240.174L125.754 240.175C127.678 240.611 129.35 241.797 130.403 243.472C131.456 245.147 131.804 247.174 131.37 249.106L131.316 249.343L112.68 245.116L114.371 237.593Z" fill="#2F2E41"/>
<path d="M84.9531 103.227C82.1751 111.643 82.4688 120.778 85.6209 130.583L86.9683 185.787C86.9683 185.787 84.9607 221.988 91.4389 234.727H100.834L105.486 182.481L106.07 147.412L126.212 176.998L113.383 233.873L124.946 234.911L145.764 173.189L120.079 113.307L84.9531 103.227Z" fill="#2F2E41"/>
<path d="M193.3 79.2542C200.486 72.7495 211.175 69.4788 220.141 73.1262C210.944 78.2553 203.849 86.4869 200.112 96.3645C198.685 100.179 197.493 104.571 193.982 106.613C191.798 107.884 189.08 107.946 186.631 107.333C184.181 106.719 181.936 105.49 179.722 104.272L179.092 104.258C181.92 94.9656 186.114 85.7589 193.3 79.2542Z" fill="#E6E6E6"/>
<path d="M220.091 73.3237C212.15 74.3545 204.734 77.8723 198.897 83.3776C197.62 84.5403 196.533 85.8981 195.676 87.4009C194.889 88.8919 194.513 90.5675 194.589 92.2535C194.627 93.8271 194.848 95.4321 194.506 96.9877C194.319 97.7813 193.967 98.5263 193.473 99.1737C192.979 99.8211 192.354 100.356 191.64 100.744C189.885 101.757 187.873 102.077 185.894 102.32C183.697 102.591 181.411 102.837 179.509 104.075C179.278 104.225 179.06 103.857 179.29 103.707C182.599 101.553 186.786 102.337 190.344 100.9C192.004 100.229 193.473 99.0516 193.993 97.2716C194.448 95.7151 194.221 94.0598 194.168 92.4669C194.071 90.8232 194.376 89.1804 195.056 87.6823C195.833 86.1405 196.867 84.7429 198.111 83.5494C200.87 80.8175 204.04 78.5383 207.504 76.7953C211.446 74.7841 215.702 73.4651 220.087 72.8954C220.358 72.8602 220.361 73.2888 220.091 73.3237Z" fill="white"/>
<path d="M200.673 81.4937C199.886 80.3846 199.518 79.0307 199.633 77.6739C199.749 76.3171 200.341 75.0456 201.303 74.0867C201.498 73.8933 201.807 74.1892 201.611 74.3829C200.713 75.2742 200.162 76.4586 200.057 77.7223C199.952 78.986 200.3 80.2458 201.039 81.2742C201.199 81.4979 200.832 81.7161 200.673 81.4937Z" fill="white"/>
<path d="M194.464 91.4583C197.193 91.9439 200.004 91.3786 202.336 89.875C202.567 89.7258 202.785 90.0937 202.555 90.2427C200.125 91.8028 197.198 92.3852 194.36 91.8735C194.089 91.8245 194.195 91.4096 194.464 91.4583Z" fill="white"/>
<path d="M211.481 75.3508C211.696 75.8436 212.03 76.275 212.452 76.6063C212.874 76.9375 213.372 77.1582 213.9 77.2485C214.171 77.294 214.065 77.7089 213.796 77.6637C213.213 77.5612 212.664 77.3168 212.196 76.9519C211.729 76.587 211.357 76.1127 211.115 75.5703C211.087 75.5211 211.08 75.4634 211.094 75.4089C211.107 75.3543 211.141 75.3071 211.188 75.2767C211.237 75.2479 211.295 75.2395 211.35 75.2534C211.404 75.2672 211.451 75.3022 211.481 75.3508Z" fill="white"/>
<path d="M230.014 104.495C229.844 104.471 229.674 104.448 229.502 104.427C227.214 104.122 224.906 104.004 222.599 104.075C222.421 104.077 222.24 104.083 222.062 104.09C216.507 104.32 211.042 105.583 205.947 107.817C203.92 108.707 201.963 109.751 200.094 110.94C197.512 112.582 194.843 114.568 191.958 115.238C191.657 115.311 191.353 115.365 191.046 115.401L179.123 105.031C179.108 104.994 179.09 104.959 179.074 104.922L178.58 104.53C178.672 104.461 178.769 104.393 178.861 104.325C178.914 104.285 178.97 104.248 179.023 104.208C179.06 104.182 179.096 104.157 179.128 104.131C179.14 104.123 179.152 104.114 179.162 104.108C179.193 104.083 179.225 104.063 179.254 104.04C179.795 103.655 180.34 103.273 180.889 102.895C180.891 102.892 180.891 102.892 180.896 102.891C185.048 99.9656 189.532 97.5449 194.252 95.68C194.393 95.6263 194.537 95.5697 194.684 95.5207C196.81 94.7268 198.997 94.1087 201.223 93.6726C202.442 93.4378 203.673 93.2651 204.91 93.1553C208.107 92.8776 211.327 93.1068 214.453 93.8344C220.684 95.2858 226.384 98.7228 229.76 104.083C229.846 104.22 229.93 104.355 230.014 104.495Z" fill="#E6E6E6"/>
<path d="M229.856 104.624C222.898 100.644 214.869 98.9685 206.908 99.834C205.191 99.9898 203.509 100.416 201.925 101.098C200.402 101.813 199.098 102.923 198.148 104.315C197.236 105.595 196.45 107.01 195.244 108.045C194.619 108.566 193.891 108.947 193.109 109.166C192.327 109.384 191.507 109.434 190.704 109.311C188.696 109.059 186.898 108.097 185.172 107.095C183.255 105.982 181.282 104.796 179.022 104.634C178.748 104.614 178.794 104.189 179.068 104.208C183.001 104.49 185.874 107.648 189.576 108.652C191.304 109.12 193.183 109.069 194.665 107.962C195.961 106.994 196.772 105.535 197.684 104.231C198.592 102.86 199.82 101.733 201.261 100.948C202.806 100.187 204.468 99.6961 206.177 99.4957C210.018 98.983 213.915 99.08 217.725 99.7833C222.078 100.562 226.267 102.082 230.11 104.279C230.348 104.415 230.092 104.759 229.856 104.624Z" fill="white"/>
<path d="M209.455 99.4037C209.492 98.0424 210.009 96.7386 210.915 95.725C211.82 94.7115 213.055 94.0542 214.398 93.8706C214.67 93.8344 214.739 94.2572 214.466 94.2934C213.215 94.4621 212.065 95.0744 211.224 96.02C210.383 96.9655 209.906 98.182 209.879 99.4498C209.873 99.7253 209.449 99.6776 209.455 99.4037Z" fill="white"/>
<path d="M198.525 103.605C200.413 105.643 202.996 106.892 205.759 107.102C206.033 107.122 205.987 107.548 205.713 107.527C202.838 107.303 200.153 105.999 198.193 103.874C198.006 103.671 198.339 103.403 198.525 103.605Z" fill="white"/>
<path d="M221.766 101.035C221.643 101.559 221.651 102.105 221.79 102.625C221.928 103.145 222.193 103.622 222.561 104.013C222.75 104.214 222.417 104.481 222.229 104.282C221.825 103.847 221.533 103.32 221.378 102.746C221.224 102.172 221.211 101.569 221.343 100.989C221.35 100.933 221.379 100.882 221.423 100.847C221.466 100.812 221.522 100.795 221.577 100.799C221.634 100.805 221.685 100.834 221.72 100.878C221.756 100.922 221.772 100.978 221.766 101.035Z" fill="white"/>
<path d="M20.5959 243.157C20.0362 245.266 18.5656 247.022 16.79 248.302C16.5005 248.511 16.2033 248.705 15.9022 248.887C15.8096 248.942 15.717 249 15.6205 249.05C15.5162 249.112 15.412 249.17 15.3078 249.225H6.9587C6.80816 248.918 6.66149 248.608 6.51481 248.302C2.93663 240.749 0.423793 232.599 0.852248 224.298C1.02223 221.078 1.69567 217.905 2.84785 214.895C5.14066 208.897 9.32486 203.706 15.0801 201.092C15.2229 201.026 15.3734 200.96 15.5201 200.898C15.4738 201.065 15.4275 201.228 15.3811 201.395C14.7637 203.629 14.3274 205.91 14.0765 208.215C14.0533 208.393 14.034 208.572 14.0186 208.754C13.4702 214.313 13.9571 219.926 15.4545 225.306C15.4583 225.317 15.4622 225.333 15.4661 225.345C15.7942 226.535 16.175 227.707 16.6086 228.861C16.9483 229.772 17.315 230.672 17.7164 231.556C19.3916 235.266 21.6381 239.221 20.5959 243.157Z" fill="#E6E6E6"/>
<path d="M15.6242 201.073C15.5432 201.182 15.4621 201.286 15.381 201.395C13.6857 203.652 12.246 206.091 11.0888 208.669C11.027 208.797 10.9691 208.924 10.9189 209.056C9.33325 212.655 8.31489 216.48 7.90044 220.393C7.89595 220.42 7.89338 220.448 7.89272 220.475C7.79622 221.39 7.73832 222.313 7.71516 223.235C7.62933 224.965 7.81561 226.698 8.26713 228.369C8.67884 229.734 9.40028 230.984 10.3747 232.021C10.4712 232.126 10.5677 232.231 10.6719 232.331C10.7491 232.413 10.834 232.494 10.9151 232.572C11.6948 233.32 12.5478 234.014 13.2812 234.817C13.6174 235.177 13.9209 235.566 14.1883 235.98C14.615 236.674 14.8907 237.451 14.9971 238.259C15.1036 239.068 15.0384 239.89 14.8059 240.671C14.281 242.633 13.0805 244.289 11.853 245.867C11.2393 246.658 10.6063 247.457 10.0582 248.302C9.85746 248.604 9.67216 248.911 9.50235 249.225H9.01599C9.17811 248.911 9.35567 248.604 9.54867 248.302C10.9576 246.072 12.9609 244.157 13.9992 241.703C14.7017 240.047 14.914 238.171 14.0262 236.546C13.766 236.074 13.4512 235.634 13.0882 235.236C12.3819 234.433 11.5365 233.747 10.7684 233.022C10.5754 232.839 10.3863 232.653 10.2049 232.459C9.24304 231.478 8.50083 230.301 8.02784 229.009C7.49219 227.367 7.23895 225.645 7.27901 223.918C7.27901 222.817 7.33691 221.708 7.44499 220.607C7.45657 220.467 7.47201 220.324 7.48745 220.18C8.27683 213.251 10.8984 206.66 15.08 201.092C15.1572 200.984 15.2382 200.879 15.3193 200.774C15.4853 200.557 15.7902 200.86 15.6242 201.073Z" fill="white"/>
<path d="M7.64323 220.643C6.30626 220.418 5.09264 219.722 4.21911 218.681C3.34559 217.639 2.86904 216.32 2.87456 214.958C2.8753 214.903 2.89746 214.849 2.93639 214.81C2.97532 214.771 3.02796 214.748 3.08324 214.747C3.13851 214.745 3.19209 214.766 3.2327 214.804C3.2733 214.841 3.29776 214.893 3.30091 214.949C3.29344 216.217 3.73747 217.446 4.55287 218.414C5.36827 219.382 6.50132 220.025 7.74753 220.228C8.01829 220.272 7.91245 220.687 7.64323 220.643Z" fill="white"/>
<path d="M10.2676 232.099C12.539 230.504 14.1286 228.108 14.7193 225.388C14.7776 225.119 15.1909 225.224 15.1327 225.493C14.5127 228.322 12.8535 230.812 10.4861 232.467C10.2604 232.624 10.043 232.256 10.2676 232.099Z" fill="white"/>
<path d="M10.9612 208.623C11.4604 208.819 12.0001 208.887 12.5319 208.821C13.0637 208.755 13.571 208.558 14.008 208.246C14.2317 208.086 14.4488 208.455 14.2266 208.614C13.7421 208.956 13.1817 209.173 12.5943 209.247C12.0069 209.321 11.4104 209.249 10.8569 209.038C10.8031 209.023 10.7571 208.987 10.7284 208.939C10.6997 208.891 10.6904 208.833 10.7023 208.778C10.7164 208.723 10.7515 208.676 10.8 208.647C10.8485 208.618 10.9064 208.609 10.9612 208.623Z" fill="white"/>
<path d="M44.5816 216.066C44.4465 216.171 44.3076 216.276 44.1725 216.384C42.3399 217.793 40.6242 219.349 39.0426 221.037C38.919 221.165 38.7955 221.297 38.6759 221.428L38.672 221.432C34.9217 225.522 31.9563 230.272 29.9253 235.445L29.9138 235.48C29.9099 235.491 29.906 235.499 29.9022 235.511C29.0972 237.581 28.4482 239.709 27.9606 241.877C27.4897 243.994 27.1037 246.262 26.3665 248.302C26.2545 248.616 26.131 248.926 25.9998 249.224H8.83838C8.89628 248.918 8.95804 248.608 9.0198 248.302C9.89279 243.809 11.2572 239.427 13.0882 235.235C13.15 235.096 13.2117 234.956 13.2812 234.817C14.2264 232.745 15.3379 230.755 16.6046 228.865L16.6049 228.863L16.6057 228.862L16.607 228.861L16.6085 228.861C17.304 227.83 18.0513 226.835 18.8473 225.879C20.9116 223.412 23.3502 221.287 26.0731 219.583C26.0885 219.571 26.1078 219.563 26.1233 219.552C31.5427 216.175 37.9656 214.566 44.1068 215.958H44.1107C44.269 215.992 44.4234 216.027 44.5816 216.066Z" fill="#E6E6E6"/>
<path d="M44.5624 216.272C44.4311 216.307 44.2999 216.345 44.1725 216.384C41.4673 217.161 38.8562 218.236 36.387 219.591C36.2634 219.657 36.1399 219.726 36.0164 219.796C32.604 221.709 29.5065 224.14 26.8336 227.004C26.8315 227.006 26.8301 227.009 26.8297 227.012C26.7988 227.043 26.7641 227.078 26.7371 227.109C26.1195 227.775 25.525 228.47 24.9615 229.183C23.8591 230.513 22.9709 232.008 22.329 233.615C21.8385 234.953 21.6654 236.388 21.8233 237.806C21.8349 237.949 21.8542 238.089 21.8735 238.232C21.8889 238.345 21.9044 238.457 21.9237 238.574C22.1784 240.128 22.6185 241.687 22.495 243.273C22.4198 244.085 22.1742 244.873 21.7744 245.583C21.3746 246.294 20.8295 246.911 20.1751 247.394C19.7303 247.74 19.2548 248.044 18.7547 248.302C18.0396 248.672 17.2945 248.981 16.5275 249.224H15.0105C15.2151 249.166 15.4158 249.108 15.6204 249.05C16.3463 248.844 17.0592 248.594 17.7549 248.302C18.1524 248.135 18.5391 247.943 18.9129 247.728C20.4646 246.832 21.7577 245.46 22.0279 243.626C22.2634 242.021 21.8079 240.415 21.5377 238.845C21.4914 238.574 21.4489 238.306 21.4258 238.039C21.2415 236.679 21.3534 235.295 21.7538 233.983C22.3092 232.346 23.1396 230.817 24.2088 229.462C24.8702 228.58 25.5762 227.732 26.324 226.922C26.4167 226.818 26.5132 226.713 26.6135 226.608C29.3427 223.724 32.494 221.276 35.9585 219.346H35.9624C38.5384 217.906 41.2713 216.769 44.1069 215.958H44.1107C44.2381 215.919 44.3694 215.88 44.4967 215.845C44.7631 215.775 44.8248 216.198 44.5624 216.272Z" fill="white"/>
<path d="M26.461 227.07C25.5287 226.081 24.9766 224.792 24.9034 223.432C24.8301 222.072 25.2404 220.73 26.0611 219.647C26.2279 219.428 26.5741 219.678 26.4071 219.897C25.6411 220.905 25.259 222.155 25.3298 223.421C25.4006 224.687 25.9196 225.886 26.7932 226.801C26.9828 227 26.6495 227.268 26.461 227.07Z" fill="white"/>
<path d="M21.6898 237.804C24.4594 237.904 27.1648 236.952 29.2666 235.138C29.4747 234.958 29.7417 235.292 29.5339 235.471C27.3432 237.355 24.5257 238.34 21.6439 238.23C21.3693 238.219 21.4166 237.793 21.6898 237.804Z" fill="white"/>
<path d="M36.3147 219.479C36.5961 219.937 36.9863 220.318 37.4504 220.587C37.9144 220.856 38.4377 221.005 38.9733 221.021C39.248 221.028 39.2003 221.454 38.9274 221.446C38.3357 221.426 37.758 221.261 37.2447 220.965C36.7313 220.669 36.298 220.251 35.9826 219.747C35.9489 219.702 35.9335 219.646 35.9395 219.59C35.9455 219.534 35.9725 219.483 36.015 219.446C36.0592 219.411 36.1154 219.395 36.1716 219.401C36.2277 219.407 36.2791 219.435 36.3147 219.479Z" fill="white"/>
<path d="M176.966 67.1269C176.57 67.6503 176.065 68.0801 175.485 68.386C174.906 68.6919 174.267 68.8665 173.613 68.8974C172.959 68.9284 172.307 68.815 171.701 68.5652C171.096 68.3154 170.552 67.9353 170.109 67.4516L155.518 73.8258L156.939 65.6442L170.577 60.8455C171.435 60.1511 172.517 59.7971 173.618 59.8505C174.719 59.9039 175.762 60.3611 176.549 61.1353C177.337 61.9096 177.814 62.9472 177.891 64.0515C177.968 65.1557 177.639 66.25 176.966 67.1269Z" fill="#FFB8B8"/>
<path d="M167.23 69.6813L133.34 84.8446L133.268 84.8185L94.6421 70.9926C91.765 69.4822 89.5715 66.9243 88.5108 63.8424C87.4501 60.7605 87.6023 57.3879 88.9364 54.4151C89.6759 52.7727 90.7533 51.3061 92.0977 50.112C93.4421 48.9179 95.023 48.0234 96.7364 47.4873C98.4498 46.9512 100.257 46.7857 102.038 47.0016C103.82 47.2175 105.536 47.8101 107.073 48.7402L135.818 66.1332L163.691 62.5046L167.23 69.6813Z" fill="#E6E6E6"/>
<path d="M333.805 249.539C333.805 249.599 333.793 249.659 333.77 249.715C333.747 249.771 333.713 249.822 333.671 249.865C333.628 249.908 333.577 249.942 333.521 249.965C333.466 249.988 333.406 250 333.345 250H1.27696C1.15513 250 1.0383 249.951 0.952162 249.865C0.86602 249.778 0.817627 249.661 0.817627 249.539C0.817627 249.416 0.86602 249.299 0.952162 249.212C1.0383 249.126 1.15513 249.077 1.27696 249.077H333.345C333.406 249.077 333.466 249.089 333.521 249.112C333.577 249.135 333.628 249.169 333.671 249.212C333.713 249.255 333.747 249.306 333.77 249.362C333.793 249.418 333.805 249.478 333.805 249.539Z" fill="#CCCCCC"/>
<path d="M121.754 115.076L87.5911 109.587C86.6951 109.298 85.8718 108.819 85.1778 108.181C84.4837 107.543 83.9353 106.761 83.5703 105.89C83.2052 105.019 83.0321 104.079 83.0628 103.135C83.0935 102.19 83.3274 101.264 83.7483 100.418L85.2975 97.3056L84.6957 64.6022C84.6232 60.3483 85.6673 56.1502 87.7229 52.4303C89.7784 48.7104 92.7731 45.5998 96.4055 43.4116L99.737 41.4107L101.421 37.116L116.945 37.4963L116.991 43.1289L122.55 52.0343L122.55 52.0712L122.201 100.542L120.669 105.544L122.986 111.363L121.754 115.076Z" fill="#E6E6E6"/>
<path d="M110.605 31.7757C118.395 31.7757 124.711 25.432 124.711 17.6066C124.711 9.78122 118.395 3.4375 110.605 3.4375C102.814 3.4375 96.4988 9.78122 96.4988 17.6066C96.4988 25.432 102.814 31.7757 110.605 31.7757Z" fill="#FFB8B8"/>
<path d="M95.9162 20.6955C95.4955 18.9151 95.6886 16.4097 95.9264 14.6171C96.5497 9.91736 99.1481 5.44942 103.096 2.80291C103.844 2.23185 104.734 1.87681 105.668 1.77604C106.602 1.73687 107.614 2.23905 107.901 3.13268C108.136 2.54288 108.489 2.00777 108.938 1.56037C109.388 1.11298 109.923 0.76279 110.512 0.531433C111.696 0.075994 112.969 -0.0962423 114.23 0.028377C116.674 0.230785 119.019 1.09422 121.014 2.52705C123.01 3.95987 124.582 5.90864 125.564 8.16653C125.941 9.06559 126.993 5.74472 127.47 6.5942C127.909 7.47718 128.674 8.15263 129.603 8.47599C130.538 8.73817 130.918 12.6093 131.286 11.7066C131.572 12.3737 131.684 13.1026 131.614 13.8253C131.544 14.548 131.293 15.2411 130.884 15.84C130.475 16.4389 129.922 16.9242 129.276 17.2506C128.63 17.577 127.913 17.7339 127.19 17.7068C126.238 17.671 125.328 17.3192 124.387 17.1678C121.023 16.6264 117.455 19.0767 116.736 22.4217C116.478 21.4544 116.067 20.5351 115.518 19.6995C115.239 19.2839 114.865 18.9412 114.428 18.6998C113.991 18.4585 113.502 18.3255 113.003 18.312C112.046 18.3479 111.205 18.9765 110.584 19.7089C109.963 20.4414 109.497 21.2959 108.871 22.0244C107.035 24.1619 104.553 29.1468 101.937 28.7832C99.8724 28.4963 96.4906 23.1263 95.9162 20.6955Z" fill="#2F2E41"/>
<path d="M195.873 83.1828C195.972 82.5368 195.84 81.8766 195.5 81.3192C195.16 80.7618 194.635 80.3432 194.018 80.1377L156.03 67.4292C155.666 67.3068 155.281 67.2624 154.898 67.2986L145.377 68.2031L139.914 68.7236L129.832 69.6806C129.223 69.7391 128.651 69.9989 128.205 70.4192C127.759 70.8395 127.465 71.3965 127.368 72.003L122.249 104.121C122.152 104.748 122.271 105.389 122.586 105.938C122.9 106.488 123.392 106.913 123.98 107.144L162.364 122.027C162.544 122.097 162.731 122.147 162.922 122.177C163.2 122.222 163.483 122.225 163.762 122.184L188.564 118.491C189.149 118.406 189.691 118.134 190.11 117.715C190.529 117.296 190.802 116.752 190.889 116.165L195.873 83.1828Z" fill="white"/>
<path d="M124.85 104.881L163.234 119.763C163.29 119.785 163.351 119.792 163.41 119.784L188.209 116.092C188.283 116.082 188.351 116.048 188.404 115.995C188.456 115.942 188.49 115.874 188.501 115.8L193.488 82.8177C193.499 82.7371 193.482 82.6551 193.44 82.5857C193.398 82.5163 193.333 82.4638 193.256 82.4371L193.001 82.3503L155.267 69.7314C155.25 69.7253 155.232 69.721 155.214 69.7186C155.184 69.7132 155.155 69.7116 155.125 69.7139L131.902 71.9213L130.059 72.095C129.983 72.1031 129.912 72.1358 129.857 72.1882C129.802 72.2405 129.765 72.3096 129.752 72.385L124.634 104.502C124.622 104.58 124.636 104.661 124.676 104.73C124.715 104.799 124.777 104.852 124.85 104.881Z" fill="#6A1B9A"/>
<path d="M131.902 71.9213L155.125 69.7139C155.155 69.7116 155.185 69.7132 155.214 69.7186C155.232 69.721 155.25 69.7253 155.267 69.7314L193.001 82.3503L183.047 83.4087L179.322 83.8029L168.723 84.9277C168.692 84.9293 168.661 84.9289 168.63 84.9266C168.611 84.9209 168.592 84.9152 168.569 84.9091L131.902 71.9213Z" fill="#2F2E41"/>
<path d="M123.98 107.146L162.363 122.028C162.544 122.098 162.731 122.147 162.923 122.175C163.201 122.221 163.484 122.225 163.763 122.185L188.562 118.493C189.148 118.408 189.69 118.135 190.109 117.716C190.528 117.297 190.802 116.753 190.889 116.166L195.873 83.1827C195.946 82.6964 195.89 82.1993 195.711 81.7416C195.686 81.6808 195.661 81.62 195.631 81.5626C195.433 81.1448 195.133 80.7847 194.757 80.5167C194.531 80.3537 194.282 80.226 194.018 80.138L193.973 80.122L156.033 67.4288C155.878 67.3792 155.719 67.3406 155.559 67.3133C155.34 67.2821 155.117 67.2778 154.897 67.3004L145.377 68.2017L139.914 68.7252L129.831 69.6815C129.419 69.7202 129.02 69.8524 128.666 70.0682C128.639 70.0815 128.612 70.0972 128.588 70.1152C128.57 70.1267 128.553 70.1395 128.538 70.1533C128.228 70.3654 127.965 70.6385 127.764 70.956C127.563 71.2736 127.429 71.6289 127.369 72.0003L122.247 104.121C122.15 104.748 122.269 105.389 122.584 105.939C122.899 106.489 123.391 106.915 123.98 107.146ZM128.049 72.1122C128.111 71.7273 128.281 71.368 128.539 71.0765C128.617 70.9827 128.704 70.8971 128.8 70.8211C129.06 70.6096 129.368 70.4653 129.697 70.4008C129.762 70.3874 129.827 70.3781 129.893 70.3729L146.871 68.7619L154.963 67.9884C155.018 67.9819 155.069 67.9829 155.119 67.98C155.242 67.9774 155.364 67.9865 155.485 68.0073C155.596 68.0217 155.706 68.0479 155.811 68.0853L193.796 80.7945C193.826 80.8051 193.853 80.8154 193.883 80.8261C194.228 80.9552 194.531 81.177 194.76 81.4673C194.941 81.6896 195.073 81.9476 195.147 82.2246C195.222 82.5015 195.237 82.7912 195.193 83.0746L190.205 116.061C190.14 116.501 189.935 116.908 189.622 117.222C189.309 117.537 188.903 117.741 188.465 117.806L163.662 121.498C163.307 121.549 162.945 121.508 162.611 121.378L124.227 106.5C123.787 106.326 123.419 106.006 123.184 105.595C122.948 105.183 122.859 104.703 122.931 104.233L128.049 72.1122Z" fill="#3F3D56"/>
<path d="M128.455 70.3284C128.475 70.27 128.511 70.2182 128.558 70.1786C128.574 70.166 128.591 70.1546 128.608 70.1445C128.624 70.1382 128.641 70.1281 128.657 70.1219C128.734 70.0908 128.82 70.0893 128.898 70.1177L129.697 70.4008L168.727 84.2308L177.862 83.2613L182.973 82.7198L193.793 81.5692L194.76 81.4673L194.948 81.4464C195.029 81.439 195.11 81.4602 195.177 81.5065C195.244 81.5528 195.293 81.6212 195.316 81.6998C195.321 81.7179 195.324 81.7365 195.326 81.7553C195.334 81.83 195.317 81.9052 195.279 81.9697C195.241 82.0341 195.183 82.0844 195.114 82.1128C195.083 82.1255 195.051 82.1342 195.018 82.1386L193.702 82.2772L183.047 83.4085L179.322 83.8027L168.723 84.9275C168.692 84.9291 168.661 84.9287 168.63 84.9264C168.611 84.9207 168.592 84.915 168.569 84.9089L128.8 70.8211L128.665 70.7731C128.634 70.7629 128.605 70.7469 128.58 70.726C128.52 70.6817 128.475 70.6192 128.453 70.5477C128.43 70.4762 128.431 70.3994 128.455 70.3284Z" fill="#3F3D56"/>
<path d="M163.028 122.276C162.938 122.262 162.857 122.212 162.804 122.138C162.75 122.065 162.727 121.973 162.741 121.882L168.344 84.531C168.358 84.4401 168.407 84.3584 168.481 84.3038C168.554 84.2492 168.646 84.2263 168.737 84.2399L168.74 84.2404C168.83 84.2549 168.91 84.3044 168.964 84.3781C169.018 84.4519 169.04 84.5439 169.027 84.6343L163.423 121.985C163.41 122.076 163.36 122.158 163.287 122.213C163.213 122.267 163.121 122.29 163.031 122.276L163.028 122.276Z" fill="#3F3D56"/>
<path d="M177.231 119.907L173.504 120.302L177.863 83.2604C177.863 83.2604 182.841 82.3552 182.974 82.7182C183.056 82.9349 177.266 119.669 177.231 119.907Z" fill="#3F3D56"/>
<path d="M128.666 70.7727L128.565 87.6647L158.336 99.0592L169.027 84.6343L128.666 70.7727Z" fill="#3F3D56"/>
<path d="M194.761 81.468C194.512 81.1538 194.177 80.9197 193.797 80.7947L155.813 68.0859C155.707 68.0499 155.597 68.0231 155.486 68.0058C155.365 67.9849 155.242 67.9757 155.119 67.9782L155.181 67.5915L155.561 67.315L164.581 60.7551L194.704 70.0284L194.756 80.5169L194.761 81.468Z" fill="#3F3D56"/>
<path d="M130.183 97.89C130.226 97.8942 130.268 97.9031 130.309 97.9166L141.964 101.762C142.11 101.81 142.23 101.914 142.3 102.052C142.369 102.189 142.381 102.349 142.333 102.496C142.285 102.642 142.181 102.764 142.044 102.833C141.907 102.903 141.748 102.915 141.603 102.867L129.948 99.0218C129.813 98.9772 129.698 98.884 129.627 98.7601C129.556 98.6362 129.533 98.4903 129.562 98.3503C129.591 98.2102 129.67 98.0859 129.785 98.001C129.9 97.9161 130.041 97.8766 130.183 97.89Z" fill="white"/>
<path d="M177.206 168.752C179.764 168.752 181.838 166.669 181.838 164.099C181.838 161.53 179.764 159.447 177.206 159.447C174.648 159.447 172.574 161.53 172.574 164.099C172.574 166.669 174.648 168.752 177.206 168.752Z" fill="#F2F2F2"/>
<path d="M59.0914 185.812C61.6496 185.812 63.7234 183.729 63.7234 181.159C63.7234 178.59 61.6496 176.507 59.0914 176.507C56.5333 176.507 54.4595 178.59 54.4595 181.159C54.4595 183.729 56.5333 185.812 59.0914 185.812Z" fill="#F2F2F2"/>
<path d="M155.59 31.885C158.149 31.885 160.222 29.8019 160.222 27.2323C160.222 24.6627 158.149 22.5796 155.59 22.5796C153.032 22.5796 150.958 24.6627 150.958 27.2323C150.958 29.8019 153.032 31.885 155.59 31.885Z" fill="#F2F2F2"/>
<path d="M163.19 104.733C162.59 104.995 161.939 105.122 161.285 105.104C160.631 105.086 159.988 104.924 159.403 104.63C158.818 104.336 158.303 103.917 157.897 103.401C157.49 102.886 157.201 102.287 157.05 101.648L141.219 100.041L146.442 93.6025L160.674 96.1153C161.761 95.9311 162.877 96.1538 163.811 96.7411C164.745 97.3283 165.433 98.2394 165.743 99.3016C166.053 100.364 165.964 101.503 165.494 102.505C165.023 103.506 164.204 104.298 163.19 104.733Z" fill="#FFB8B8"/>
<path d="M153.453 102.179L116.51 98.7597L116.459 98.7012L89.4974 67.6689C87.723 64.9383 87.0549 61.6296 87.6299 58.4203C88.2049 55.211 89.9796 52.3439 92.5904 50.4061C94.035 49.3366 95.6888 48.5865 97.4428 48.2053C99.1968 47.824 101.011 47.8202 102.767 48.1942C104.522 48.5681 106.179 49.3113 107.628 50.3748C109.077 51.4383 110.286 52.798 111.174 54.3644L127.78 83.6549L153.86 94.1804L153.453 102.179Z" fill="#E6E6E6"/>
<path d="M246.179 42.5012C245.261 35.7417 244.11 28.4843 239.364 23.6047C237.858 22.0564 236.056 20.8305 234.065 20.0008C232.075 19.1712 229.938 18.7551 227.783 18.7775C225.628 18.7999 223.5 19.2604 221.527 20.1312C219.554 21.002 217.777 22.2652 216.303 23.8444C212.848 27.5467 211.323 32.7453 211.183 37.818C211.043 42.8906 212.168 47.9069 213.416 52.8243C220.019 52.9568 226.572 51.661 232.633 49.0248C234.148 48.3641 235.639 47.6172 237.24 47.2078C238.841 46.7985 239.983 47.8285 241.472 48.5468L242.29 46.9744C242.959 48.2254 245.031 47.8546 245.783 46.6517C246.534 45.4488 246.37 43.9084 246.179 42.5012Z" fill="#2F2E41"/>
<path d="M220.005 80.2304L193.034 80.8098C192.619 80.0906 192.006 79.5078 191.268 79.1324C190.53 78.7569 189.7 78.605 188.877 78.6951C188.055 78.7852 187.277 79.1134 186.637 79.6398C185.997 80.1662 185.523 80.8681 185.273 81.6601C185.023 82.4521 185.007 83.3 185.228 84.1007C185.449 84.9014 185.897 85.6203 186.517 86.17C187.137 86.7197 187.903 87.0764 188.722 87.1968C189.54 87.3172 190.376 87.1961 191.127 86.8482C194.704 87.0524 222.69 91.0423 224.36 88.471C226.055 85.8612 235.1 76.6508 235.1 76.6508L228.147 66.708L220.005 80.2304Z" fill="#9E616A"/>
<path d="M226.578 49.1889C233.577 49.1889 239.25 43.4899 239.25 36.4598C239.25 29.4297 233.577 23.7307 226.578 23.7307C219.579 23.7307 213.906 29.4297 213.906 36.4598C213.906 43.4899 219.579 49.1889 226.578 49.1889Z" fill="#9E616A"/>
<path d="M246.875 60.9518C245.381 57.9664 244.656 54.2783 241.472 53.3104C239.322 52.6569 230.627 53.6363 228.667 54.7396C225.408 56.5747 228.362 60.0135 226.439 63.2316C224.349 66.7299 218.668 73.7505 216.578 77.2488C215.141 79.6538 219.981 86.713 219.204 89.4071C218.427 92.1012 218.39 95.125 219.713 97.5948C220.898 99.8054 219.184 101.761 220.375 103.968C221.614 106.263 223.135 114.845 221.982 117.185L221.21 119.511C228.87 119.963 235.312 110.77 242.925 109.802C244.816 109.561 246.779 109.247 248.338 108.144C250.633 106.52 251.54 103.573 252.107 100.811C254.837 87.3104 252.995 73.2805 246.875 60.9518Z" fill="#3F3D56"/>
<path d="M258.36 92.4746C257.293 89.5489 255.361 76.7575 255.361 76.7575L243.27 76.4014L249.182 91.0465L233.051 113.73C233.051 113.73 233.081 113.779 233.135 113.868C232.287 113.732 231.417 113.855 230.64 114.223C229.864 114.591 229.215 115.186 228.78 115.93C228.345 116.674 228.144 117.532 228.203 118.393C228.262 119.254 228.578 120.077 229.11 120.754C229.643 121.431 230.366 121.932 231.186 122.189C232.005 122.447 232.884 122.45 233.705 122.198C234.527 121.946 235.253 121.45 235.79 120.777C236.327 120.103 236.648 119.282 236.713 118.422C236.772 118.456 236.842 118.469 236.909 118.457C236.977 118.445 237.038 118.41 237.083 118.358C238.878 116.096 259.427 95.4002 258.36 92.4746Z" fill="#9E616A"/>
<path d="M259.59 84.3963C258.48 79.6913 257.362 74.9608 255.491 70.5058C253.62 66.0507 250.941 61.8429 247.174 58.8331C245.969 57.8709 244.623 57.0215 243.113 56.7224C241.603 56.4232 239.902 56.758 238.841 57.8783C237.144 59.671 237.655 62.5485 238.277 64.9419C240.112 71.9986 241.948 79.0554 243.783 86.1121C249.082 85.5479 254.382 84.9837 259.681 84.4194L259.59 84.3963Z" fill="#3F3D56"/>
<path d="M242.106 38.2254C241.639 35.1461 241.152 32.0411 240.055 29.1416C238.959 26.2421 237.192 23.5264 234.657 21.8838C230.643 19.2833 225.446 19.7849 220.946 21.2807C217.465 22.4376 214.068 24.1959 211.614 27.0227C209.16 29.8495 207.781 33.883 208.694 37.5791C213.495 36.4399 218.295 35.3007 223.095 34.1614L222.57 34.5344C224.146 35.3239 225.522 36.4637 226.595 37.8673C227.667 39.2709 228.406 40.9014 228.758 42.635C229.101 44.3898 229.052 46.1992 228.613 47.9324C228.175 49.6657 227.359 51.2794 226.223 52.6569C229.497 51.4903 232.771 50.3237 236.045 49.1571C238.066 48.4371 240.229 47.6074 241.427 45.7605C242.816 43.6191 242.493 40.7809 242.106 38.2254Z" fill="#2F2E41"/>
</g>
<defs>
<clipPath id="clip0_359_42484">
<rect width="333" height="250" fill="white" transform="translate(0.804688)"/>
</clipPath>
</defs>
</svg>
