<svg xmlns="http://www.w3.org/2000/svg" width="12" height="15" viewBox="0 0 12 15" fill="none">
  <path fill-rule="evenodd" clip-rule="evenodd" d="M6 2.51092C4.02646 2.51092 2.42659 4.1033 2.42659 6.0676C2.42659 8.0319 4.02646 9.62428 6 9.62428C7.97354 9.62428 9.57341 8.0319 9.57341 6.0676C9.57341 4.1033 7.97354 2.51092 6 2.51092ZM4.01477 6.0676C4.01477 4.97632 4.90359 4.09166 6 4.09166C7.09641 4.09166 7.98523 4.97632 7.98523 6.0676C7.98523 7.15888 7.09641 8.04353 6 8.04353C4.90359 8.04353 4.01477 7.15888 4.01477 6.0676Z" fill="#1B1818"/>
  <path fill-rule="evenodd" clip-rule="evenodd" d="M2.67216 1.00287C4.68734 -0.334291 7.31266 -0.334291 9.32784 1.00287C12.0523 2.81067 12.8172 6.45884 11.0465 9.20028L8.00391 13.9111C7.06617 15.363 4.93383 15.363 3.99609 13.9111L0.953478 9.20028C-0.817163 6.45884 -0.0522804 2.81067 2.67216 1.00287ZM3.55312 2.31814C5.03483 1.33495 6.96517 1.33495 8.44688 2.31814C10.4501 3.64736 11.0125 6.32977 9.71058 8.34548L6.66797 13.0563C6.35539 13.5402 5.64461 13.5402 5.33203 13.0563L2.28942 8.34548C0.987514 6.32977 1.54991 3.64736 3.55312 2.31814Z" fill="#1B1818"/>
</svg>